<svg width="8" height="8" viewBox="0 0 8 8" fill="none" xmlns="http://www.w3.org/2000/svg">
<path d="M3.246 7.08722C3.20733 7.04955 3.042 6.90729 2.906 6.77482C2.05067 5.99809 0.650667 3.97175 0.223333 2.91122C0.154667 2.75015 0.00933333 2.34293 0 2.12537C0 1.91689 0.048 1.71815 0.145333 1.52851C0.281333 1.29211 0.495333 1.10247 0.748 0.99856C0.923334 0.931667 1.448 0.827754 1.45733 0.827754C2.03133 0.72384 2.964 0.666687 3.99467 0.666687C4.97667 0.666687 5.87133 0.72384 6.454 0.80892C6.46333 0.81866 7.11533 0.922574 7.33867 1.03623C7.74667 1.2447 8 1.65191 8 2.08769V2.12537C7.99 2.40918 7.73667 3.00602 7.72733 3.00602C7.29933 4.00942 5.968 5.98895 5.08333 6.78455C5.08333 6.78455 4.856 7.00862 4.714 7.10602C4.51 7.25802 4.25733 7.33335 4.00467 7.33335C3.72267 7.33335 3.46 7.24829 3.246 7.08722Z" fill="#738136"/>
</svg>
