<svg width="24" height="24" viewBox="0 0 24 24" fill="none" xmlns="http://www.w3.org/2000/svg">
<path fill-rule="evenodd" clip-rule="evenodd" d="M7.48623 21.4998H15.8341C18.9004 21.4998 21.2528 20.3922 20.5847 15.9346L19.8066 9.89339C19.3947 7.66913 17.976 6.81787 16.7311 6.81787H6.55259C5.28943 6.81787 3.95305 7.73321 3.47707 9.89339L2.69904 15.9346C2.13154 19.8888 4.41987 21.4998 7.48623 21.4998Z" stroke="#717D34" stroke-width="1.5" stroke-linecap="round" stroke-linejoin="round"/>
<path d="M7.349 6.59824C7.349 4.21217 9.28329 2.27787 11.6693 2.27787C12.8183 2.273 13.9219 2.72603 14.7361 3.53679C15.5503 4.34754 16.008 5.44923 16.008 6.59824" stroke="#717D34" stroke-width="1.5" stroke-linecap="round" stroke-linejoin="round"/>
<path d="M8.70361 11.1016H8.74938" stroke="#717D34" stroke-width="1.5" stroke-linecap="round" stroke-linejoin="round"/>
<path d="M14.5343 11.1016H14.5801" stroke="#717D34" stroke-width="1.5" stroke-linecap="round" stroke-linejoin="round"/>
</svg>
