<svg width="14" height="14" viewBox="0 0 14 14" fill="none" xmlns="http://www.w3.org/2000/svg">
<path fill-rule="evenodd" clip-rule="evenodd" d="M8.37405 1.17128C8.24397 1.15263 8.11325 1.1911 8.00924 1.27388C7.90237 1.35782 7.83552 1.47907 7.821 1.6149C7.79025 1.88945 7.98835 2.13778 8.26252 2.16868C10.1535 2.3797 11.6233 3.85277 11.8359 5.74964C11.8644 6.00377 12.0776 6.19557 12.332 6.19557C12.3512 6.19557 12.3698 6.19441 12.389 6.19207C12.522 6.17749 12.6405 6.11163 12.7242 6.00669C12.8073 5.90181 12.845 5.7712 12.8299 5.63771C12.565 3.27101 10.7333 1.43418 8.37405 1.17128ZM8.4104 3.20246C8.13267 3.15116 7.87764 3.32837 7.82479 3.59943C7.77194 3.87049 7.94968 4.13515 8.21982 4.18819C9.03316 4.34675 9.66118 4.97632 9.82031 5.79243V5.79301C9.86564 6.02792 10.0725 6.19872 10.3107 6.19872C10.3426 6.19872 10.3745 6.19581 10.4071 6.18997C10.6772 6.13578 10.855 5.87171 10.8021 5.60006C10.5645 4.38114 9.6263 3.43971 8.4104 3.20246ZM9.33323 8.80278C9.59655 8.65094 9.89404 8.47944 10.2692 8.55924C10.6091 8.63093 11.7675 9.57121 12.0847 9.89711C12.2927 10.1104 12.4083 10.3308 12.4263 10.5511C12.4576 11.4156 11.283 12.4025 11.0692 12.5256C10.7851 12.7301 10.4546 12.8333 10.0833 12.8333C9.70399 12.8333 9.28102 12.7255 8.81978 12.5104C6.3171 11.4658 2.4939 7.71807 1.48306 5.23479C1.06362 4.31026 1.06071 3.54778 1.47608 2.97476C1.64165 2.70603 2.58568 1.58272 3.43096 1.61827C3.65578 1.63751 3.87421 1.75294 4.08858 1.96279C4.41275 2.28048 5.32948 3.44228 5.40035 3.78329C5.47878 4.1622 5.30682 4.46357 5.15403 4.72822C5.12145 4.78511 5.07754 4.85263 5.02944 4.92659C4.84687 5.20731 4.60388 5.58094 4.68986 5.81948C5.30624 7.33278 6.7301 8.6531 8.24409 9.27336C8.47818 9.35847 8.85163 9.1137 9.13145 8.93036C9.20431 8.88258 9.27087 8.83895 9.32693 8.8064L9.33323 8.80278Z" fill="white"/>
</svg>
