<svg width="11" height="9" viewBox="0 0 11 9" fill="none" xmlns="http://www.w3.org/2000/svg">
<path d="M10.9969 2.68773H10.9964C10.998 2.6535 10.9993 2.61928 10.9993 2.58485C10.9993 1.20028 9.71001 0 8.11925 0C6.95626 0 5.95493 0.678007 5.50033 1.54192H5.49966C5.04507 0.678007 4.04374 0 2.88075 0C1.28999 0 0.000438114 1.20028 0.000438114 2.58485C0.000438114 2.61928 0.00177977 2.6535 0.00334504 2.68773H0.00312143C0.00312143 2.68773 -0.159442 4.33252 1.86176 6.12839C2.7808 6.96233 3.80851 7.75476 5.50011 9C7.19172 7.75476 8.21943 6.96233 9.13846 6.12839C11.1594 4.33252 10.9969 2.68773 10.9969 2.68773Z" fill="#DE8D1E"/>
</svg>
