<svg width="30" height="30" viewBox="0 0 30 30" fill="none" xmlns="http://www.w3.org/2000/svg">
<path d="M7.17293 11.4275L7.1192 11.4262C6.47203 11.4118 5.93455 11.9214 5.91832 12.5684C5.90215 13.2154 6.4135 13.753 7.06049 13.7692L7.12424 13.7708C9.65766 13.8198 11.7188 15.9221 11.7188 18.457C11.7188 21.0417 9.61594 23.1445 7.03125 23.1445C4.44656 23.1445 2.34375 21.0417 2.34375 18.457C2.34375 15.2286 3.11156 12.2496 4.62603 9.60264C5.75789 7.62422 6.90891 6.5792 6.93041 6.55986C7.41311 6.13137 7.45846 5.39262 7.03107 4.90822C6.60281 4.42301 5.86236 4.37666 5.37703 4.8048C5.32037 4.85484 3.97395 6.05572 2.64855 8.34006C1.44023 10.4225 0 13.8681 0 18.457C0 22.3341 3.15422 25.4883 7.03125 25.4883C10.9083 25.4883 14.0625 22.3341 14.0625 18.457C14.0625 16.6031 13.3472 14.8537 12.0484 13.5311C10.7522 12.2112 9.02074 11.4642 7.17293 11.4275Z" fill="#DE8D1E"/>
<path d="M27.9859 13.5314C26.6896 12.2114 24.9583 11.4644 23.1104 11.4278L23.0567 11.4264C22.4116 11.4121 21.8721 11.9216 21.8558 12.5686C21.8396 13.2156 22.351 13.7533 22.998 13.7695L23.0617 13.771C25.5952 13.8201 27.6562 15.9224 27.6562 18.4573C27.6562 21.042 25.5534 23.1448 22.9688 23.1448C20.3841 23.1448 18.2812 21.042 18.2812 18.4573C18.2812 15.2289 19.0491 12.2498 20.5635 9.60294C21.6953 7.62452 22.8463 6.5795 22.8679 6.56017C23.3506 6.13161 23.3959 5.39292 22.9685 4.90853C22.5403 4.42325 21.7998 4.3769 21.3145 4.80511C21.2579 4.85515 19.9114 6.05603 18.586 8.34036C17.3777 10.4228 15.9375 13.8684 15.9375 18.4573C15.9375 22.3343 19.0917 25.4885 22.9688 25.4885C26.8458 25.4885 30 22.3343 30 18.4573C30 16.6033 29.2847 14.8539 27.9859 13.5314Z" fill="#DE8D1E"/>
</svg>
